<svg width="64" height="64" viewBox="0 0 64 64" fill="none" xmlns="http://www.w3.org/2000/svg">
<circle cx="32" cy="32" r="32" fill="#FF4B13"/>
<path d="M27.8227 43.66L25.4767 37.098H15.7527L13.4067 43.66C13.3387 43.8867 13.2027 44 12.9987 44H10.7207C10.4713 44 10.3467 43.8867 10.3467 43.66C10.3467 43.592 10.358 43.524 10.3807 43.456L18.8127 20.54C18.8807 20.3133 18.994 20.2 19.1527 20.2H22.0767C22.2353 20.2 22.3487 20.3133 22.4167 20.54L30.8487 43.456C30.8713 43.524 30.8827 43.592 30.8827 43.66C30.8827 43.8867 30.758 44 30.5087 44H28.2307C28.0267 44 27.8907 43.8867 27.8227 43.66ZM20.6147 23.634L16.7387 34.378H24.4907L20.6147 23.634ZM36.669 32.95V43.66C36.669 43.8867 36.5557 44 36.329 44H34.153C33.9264 44 33.813 43.8867 33.813 43.66V20.54C33.813 20.3133 33.9264 20.2 34.153 20.2H36.329C36.5557 20.2 36.669 20.3133 36.669 20.54V30.23H48.297V20.54C48.297 20.3133 48.4104 20.2 48.637 20.2H50.813C51.0397 20.2 51.153 20.3133 51.153 20.54V43.66C51.153 43.8867 51.0397 44 50.813 44H48.637C48.4104 44 48.297 43.8867 48.297 43.66V32.95H36.669Z" fill="black"/>
</svg>
